<svg data-name="Calque 1" xmlns="http://www.w3.org/2000/svg" viewBox="0 0 32 32"><path d="M11.74 14.8a4.39 4.39 0 00-1.25.31 2 2 0 00-.87.69 1.87 1.87 0 00-.31 1.1A1.55 1.55 0 0011 18.6a3 3 0 00.79-.09 2.24 2.24 0 001-.71l.14.18a1.45 1.45 0 00.13.18l.14.15.23.22a.26.26 0 00.27 0l.84-.73a.17.17 0 00.08-.13.29.29 0 00-.06-.15l-.21-.29a.86.86 0 01-.14-.29 1.23 1.23 0 01-.07-.44v-2.28-.24a.72.72 0 000-.26s0-.12-.05-.22a1 1 0 00-.09-.24c0-.06-.07-.12-.12-.2l-.18-.2a2.37 2.37 0 00-1.7-.55h-.23a2.92 2.92 0 00-1.46.45A1.83 1.83 0 009.5 14v.07c0 .07.06.14.16.17l1.08.13a.23.23 0 00.18-.22.77.77 0 01.29-.46 1 1 0 01.54-.2h.07a.7.7 0 01.62.28 1.65 1.65 0 01.13.8v.16zm.82 1v.43a1.85 1.85 0 01-.05.34 1.45 1.45 0 01-.16.38.94.94 0 01-.6.51h-.15a.59.59 0 01-.49-.22.85.85 0 01-.19-.59 1 1 0 01.83-1 3.29 3.29 0 01.82-.08zM16.72 19.48c-.06-.07-.23-.11-.51-.14H16a3.47 3.47 0 00-.7.1 1.39 1.39 0 00-.44.22.19.19 0 00-.06.07h.07l.43-.06h.38c.29 0 .46 0 .52.12a.21.21 0 010 .15 3.7 3.7 0 01-.35 1.13v.1a.12.12 0 00.08 0 1.76 1.76 0 00.5-.71 2.16 2.16 0 00.18-.78v-.06a.35.35 0 00.11-.14z" fill="#151d4c"/><path d="M15.61 20.12l-.13.05-.14.06a10.13 10.13 0 01-3.61.68 10 10 0 01-5.09-1.35h-.15a.08.08 0 000 .05.12.12 0 00.06.09 7.58 7.58 0 002.33 1.44 7.44 7.44 0 002.76.51 7.78 7.78 0 001.93-.26 7 7 0 001.79-.74l.43-.28q.13-.09.06-.21a.17.17 0 00-.24-.04z" fill="#151d4c"/><path d="M27.43 7.2H5.23a.34.34 0 00-.34.34v18.51a.34.34 0 00.34.33h22.2a.33.33 0 00.33-.33V7.54a.34.34 0 00-.33-.34zm-.34 9h-8.48V7.87h8.48zM5.56 7.87h12.38v17.84H5.56zm13.05 17.84v-8.89h8.48v8.89z" fill="#151d4c"/><circle cx="25.6" cy="14.62" r=".61" fill="#151d4c"/><path d="M25.6 23.52a.61.61 0 00-.61.61.61.61 0 001.22 0 .61.61 0 00-.61-.61z" fill="#151d4c"/></svg>