<svg data-name="Calque 1" xmlns="http://www.w3.org/2000/svg" viewBox="0 0 32 32"><path d="M18.1 12.88a1.73 1.73 0 10-1.73-1.73 1.74 1.74 0 001.73 1.73zm0-2.66a.93.93 0 11-.93.93.93.93 0 01.93-.93zM11.89 22.63A2.62 2.62 0 109.27 20a2.62 2.62 0 002.62 2.63zm0-4.43a1.82 1.82 0 11-1.82 1.8 1.82 1.82 0 011.82-1.8zM18.14 20a2.62 2.62 0 102.62-2.62A2.61 2.61 0 0018.14 20zm2.62-1.82A1.82 1.82 0 1118.94 20a1.81 1.81 0 011.82-1.8z" fill="#151d4c"/><path d="M13.34 17.22A3.13 3.13 0 0115 20a1.29 1.29 0 002.57 0 5.73 5.73 0 00-1.64-4l.25-.25A4.16 4.16 0 0019 16.87a1.29 1.29 0 000-2.58c-.92 0-1.49-1-1.51-1.06a1.28 1.28 0 00-2-.36l-2.39 2.28a1.19 1.19 0 00-.26.33 1.29 1.29 0 00.5 1.74zm.16-1.37a.58.58 0 01.1-.12l2.4-2.28a.51.51 0 01.33-.13.49.49 0 01.34.15l.09.13A2.77 2.77 0 0019 15.09a.49.49 0 010 1 3.38 3.38 0 01-2.49-1.18.38.38 0 00-.28-.14.38.38 0 00-.3.11l-.86.81a.43.43 0 00-.12.31.4.4 0 00.14.29A4.92 4.92 0 0116.81 20a.49.49 0 01-.49.48.48.48 0 01-.48-.48 3.94 3.94 0 00-2.13-3.51.49.49 0 01-.21-.64z" fill="#151d4c"/><path d="M26 5.6H6a.4.4 0 00-.4.4v20a.4.4 0 00.4.4h20a.4.4 0 00.4-.4V6a.4.4 0 00-.4-.4zm-.4 20H6.4V6.4h19.2z" fill="#151d4c"/></svg>