<svg data-name="Calque 1" xmlns="http://www.w3.org/2000/svg" viewBox="0 0 32 32"><path d="M27.17 24.58a.86.86 0 01-1.71 0V18a.86.86 0 011.71 0zm-2.46-2.46H21a2.34 2.34 0 000-1.7h3.74zm-5.89.7a1.56 1.56 0 010-3.11 1.56 1.56 0 110 3.11zm-2.09-2.53L15.42 19l1.21-1.2L18 19.12a2.33 2.33 0 00-1.27 1.17zm-5.09 1.41a1.08 1.08 0 01-1.51 0L6 17.6a1.07 1.07 0 010-1.5l9.22-9.22a1.06 1.06 0 011.51 0L20.86 11a1.08 1.08 0 010 1.51zm-3.34.84a.31.31 0 01-.42 0L5.2 19.85a.28.28 0 010-.41l.8-.81 3.1 3.1zm-1.37.28a.31.31 0 01-.42 0l-1.59-1.6a.3.3 0 010-.41l.08-.09 2 2zm19.38-6.47a1.6 1.6 0 00-1.6 1.6v1.71h-4.23a2.28 2.28 0 00-1.61-.7l-1.71-1.72L21.39 13a1.82 1.82 0 000-2.57l-4.1-4.1a1.82 1.82 0 00-2.57 0L5.5 15.56a1.82 1.82 0 000 2.54l-.8.8a1 1 0 00-.17 1.26l-.11.12a1 1 0 000 1.48L6 23.35a1 1 0 001.48 0l.11-.11a1.06 1.06 0 001.26-.17l.8-.8a1.83 1.83 0 002.54 0l2.72-2.72 1.63 1.63v.13a2.31 2.31 0 002.3 2.31 2.27 2.27 0 001.66-.71h4.23v1.71a1.61 1.61 0 103.21 0V18a1.61 1.61 0 00-1.61-1.6z" fill="#151d4c"/></svg>