<svg data-name="Calque 1" xmlns="http://www.w3.org/2000/svg" viewBox="0 0 32 32"><path d="M26.4 16h-3.64a11.73 11.73 0 00-9.35-4 6.77 6.77 0 00-6.61 4.1 2.72 2.72 0 00-1.57 1.63 2 2 0 01-1.58-2.13c0-.91.77-1.33 1.95-1.86 1-.45 2.1-1 2.1-2.11V11a2 2 0 00.5-1.31 2.09 2.09 0 00-.58-1.48L6.51 7.1a.4.4 0 00-.56 0l-.35.33-.33-.34a.4.4 0 00-.57.56L5 8l-.58.56-.3-.36a.4.4 0 10-.57.56l.33.34-.35.33a.41.41 0 000 .57l1.1 1.14a2.13 2.13 0 001.47.63 2.25 2.25 0 00.78-.15c0 .6-.61.92-1.63 1.38s-2.4 1.1-2.4 2.6A2.82 2.82 0 005 18.49 9.37 9.37 0 004.68 21a.39.39 0 00.4.4h2.08a2.36 2.36 0 004.65 0h10a2.36 2.36 0 004.65 0h1.65a.39.39 0 00.34-.19 5.42 5.42 0 00.64-2.5C29.1 17.1 27.18 16 26.4 16zM6.1 11a1.33 1.33 0 01-.9-.39l-.82-.85.34-.33 1.15-1.15.34-.33.79.84a1.28 1.28 0 010 1.81 1.17 1.17 0 01-.9.4zm15.59 5h-6.46v-3.12A11.13 11.13 0 0121.69 16zm-8.28-3.29h1V16H7.7a5.92 5.92 0 015.71-3.25zM7.1 16.84h7.33v3.75h-2.62a2.36 2.36 0 00-4.65 0H5.48c.11-3.52 1.65-3.75 1.62-3.75zm2.39 5.72A1.56 1.56 0 017.92 21a1.57 1.57 0 111.57 1.57zm14.66 0A1.57 1.57 0 1125.71 21a1.57 1.57 0 01-1.56 1.56zm3.72-2h-1.4a2.36 2.36 0 00-4.65 0h-6.59v-3.72H26.4c.47 0 1.9.84 1.9 1.86a4.72 4.72 0 01-.43 1.89z" fill="#151d4c"/></svg>