<svg data-name="Calque 1" xmlns="http://www.w3.org/2000/svg" viewBox="0 0 32 32"><path d="M25.7 11.52a1.25 1.25 0 00-1.27-1.16h-4.22a3.6 3.6 0 001.3-2.46A1.61 1.61 0 0021 6.69c-.86-.75-2.69-.39-4.07.82a5.32 5.32 0 00-.76.82 4.87 4.87 0 00-.76-.82C14 6.3 12.2 5.94 11.34 6.69a1.56 1.56 0 00-.52 1.2 3.66 3.66 0 001.3 2.47H7.47a1.26 1.26 0 00-1.18 1.26v2.43a1.3 1.3 0 001.16 1.18v9.29a1.28 1.28 0 001.27 1.19h14.65a1.28 1.28 0 001.17-1.28v-9.2A1.29 1.29 0 0025.71 14zm-8.25-3.41c1.13-1 2.52-1.24 3-.81a.76.76 0 01.25.6 2.9 2.9 0 01-1.07 1.9l-.11.1-.2.19a1.11 1.11 0 01-.34.27h-2.4V9.19a3.81 3.81 0 01.87-1.08zM17 11.17v13.74h-1.3V11.17zm-5.38-3.28a.72.72 0 01.25-.59c.49-.43 1.88-.17 3 .82a3.81 3.81 0 01.88 1.08v1.18h-2.44a1.64 1.64 0 01-.31-.28l-.2-.2a3 3 0 01-1.18-2.01zM8.26 24.42v-9.19h5.3a.4.4 0 000-.8h-6a.49.49 0 01-.47-.43v-2.38a.48.48 0 01.48-.46h7.34v13.75H8.73a.49.49 0 01-.47-.49zM24.91 14a.5.5 0 01-.48.48h-5.32a.4.4 0 000 .8h4.63v9.19a.49.49 0 01-.47.49h-5.46V11.17h6.62a.48.48 0 01.48.46z" fill="#151d4c"/></svg>