<svg data-name="Calque 1" xmlns="http://www.w3.org/2000/svg" viewBox="0 0 32 32"><path d="M26 25.85h-1a2.36 2.36 0 01-1.58-.6l-1.83-1.63V18.7a4.41 4.41 0 004.05-4.84 4.44 4.44 0 00-1.64-3 3.39 3.39 0 10-5.5 0 4.44 4.44 0 00-1.64 3 4.41 4.41 0 004.05 4.84V23l-2.06-1.83a3 3 0 00-1.33-.69V18a1.71 1.71 0 00-1.69-1.69h-.69v-4.72h1c-.69-.79-4-4.94-5.12-6.3a.44.44 0 00-.69 0l-5.12 6.3h1v14.26h-.55v.68h21.05v-.68zm-7.69-9.26a3.74 3.74 0 01.88-5.39l.32-.22-.27-.29a2.71 2.71 0 114 0L23 11l.33.22A3.73 3.73 0 0121.69 18v-3.65l1-1.27a.39.39 0 00-.07-.56.41.41 0 00-.56.07l-.8 1-1.06-1.06a.4.4 0 00-.56 0 .4.4 0 000 .57l1.26 1.26V18a3.73 3.73 0 01-2.56-1.41zm-2.5.43a1 1 0 011 1h-1.64V17zM7 15v-3.41h7.47V15zm7.47.68v4.76h-.68v-4.78zm-1.36 4.76h-.68v-4.78h.68zm-1.36-4.76v4.76h-.68v-4.78zm-1.35 4.76h-.66v-4.78h.68zm-1.34-4.78v4.76h-.68v-4.76zM7.7 20.42H7v-4.76h.7zm6.79 5.43H7v-4.76h7.47zM6.71 10.91l3.6-4.47a.56.56 0 01.89 0l3.59 4.47zm8.45 7.8h1.69v1.69h-1.69zM21 25.86h-5.83v-4.77h1.69a2.44 2.44 0 011.58.61L21 23.93zm.67 0v-1.33L23 25.76l.12.09z" fill="#ffffff"/></svg>