<svg data-name="Calque 1" xmlns="http://www.w3.org/2000/svg" viewBox="0 0 32 32"><path d="M25.16 15.22h-3.43a6.7 6.7 0 00-4.84-3.64.44.44 0 00.11-.27V10a.4.4 0 00-.4-.4h-2.67a.4.4 0 00-.4.4v1.3a6.5 6.5 0 00-5.79 4A6.46 6.46 0 005 21.55a.4.4 0 00.4.37h2.7a2.28 2.28 0 004.5 0h8.12a2.28 2.28 0 004.5 0h1.57a.4.4 0 00.33-.17 5.9 5.9 0 001.06-2.87c.02-2.09-1.29-3.66-3.02-3.66zm-4.32 0h-4.92v-3a6.37 6.37 0 014.92 3zm-6.51-4.84h1.87v.53h-1.87zm-.18 1.69h1v3.11H8.67a5.71 5.71 0 015.48-3.11zM8.18 16h6.94v5.1h-2.5a2.28 2.28 0 00-4.5 0H5.8A5.58 5.58 0 018.18 16zm2.19 7a1.49 1.49 0 111.49-1.49A1.49 1.49 0 0110.37 23zM23 23a1.49 1.49 0 111.49-1.49A1.49 1.49 0 0123 23zm3.61-1.89h-1.37a2.28 2.28 0 00-4.5 0h-4.82V16h9.24c1.28 0 2.24 1.23 2.24 2.86a4.88 4.88 0 01-.8 2.26zM24.54 10.3a2.63 2.63 0 10-2.63-2.63 2.63 2.63 0 002.63 2.63zm0-4.46a1.83 1.83 0 11-1.83 1.83 1.83 1.83 0 011.83-1.83z" fill="#151d4c"/><path d="M25.13 9a.43.43 0 00.28.11.41.41 0 00.28-.11.4.4 0 000-.57l-.77-.77v-1a.4.4 0 00-.8 0v1.12a.4.4 0 00.12.29z" fill="#151d4c"/></svg>