<svg data-name="Calque 1" xmlns="http://www.w3.org/2000/svg" viewBox="0 0 32 32"><path d="M22.26 11.87l-3.7-2.39a3.76 3.76 0 00.3-1.55c0-1.88-1.29-3.43-2.84-3.43s-2.84 1.55-2.84 3.43a4.45 4.45 0 00.3 1.55l-3.7 2.39a.51.51 0 00-.21.39v14.62a.46.46 0 00.45.45H22a.46.46 0 00.45-.45V12.26a.33.33 0 00-.19-.39zm-8.15-3.94a2.3 2.3 0 011.94-2.54A2.3 2.3 0 0118 7.93a2.76 2.76 0 01-.18 1L16.29 8a.46.46 0 00-.48 0l-1.52 1a3 3 0 01-.18-1zm7.43 18.51h-11V12.5l3.79-2.45 1.73-1.17 1.31.87a1.71 1.71 0 01-.42.39 1.49 1.49 0 00-.89-.3 1.61 1.61 0 00-1.14.51.41.41 0 00-.09.12 1.44 1.44 0 00-.26.86 1.49 1.49 0 003 0 1.1 1.1 0 00-.09-.45 3.54 3.54 0 00.66-.62l3.43 2.23zm-4.89-15.2v.09a.6.6 0 01-1.2 0v-.09a1.93 1.93 0 00.6.09 2.08 2.08 0 00.6-.09zm-.42 4.06a2.51 2.51 0 00-2.6 2.39v.45h-.45a.45.45 0 000 .89h.48v.6h-.45a.45.45 0 000 .9h.45V21a2.5 2.5 0 002.6 2.39 2.62 2.62 0 002.44-1.58.44.44 0 00-.26-.57.44.44 0 00-.57.24 1.74 1.74 0 01-1.61 1 1.63 1.63 0 01-1.7-1.5v-.44h2.83a.45.45 0 000-.9h-2.83V19h2.83a.45.45 0 100-.89h-2.83v-.45a1.6 1.6 0 011.7-1.49 1.73 1.73 0 011.61 1 .43.43 0 00.57.24.41.41 0 00.23-.57 2.56 2.56 0 00-2.44-1.54z" fill="#151d4c"/></svg>