<svg data-name="Calque 1" xmlns="http://www.w3.org/2000/svg" viewBox="0 0 32 32"><path d="M8.5 18a2.82 2.82 0 005.63 0v-.1l1.18 1 .09.06a.75.75 0 00.12.07.58.58 0 00.18.07H15.93l1.43.05h.12l-.05-.4.17.37h.13l.13-.06L18 19l.08-.06s.06-.07.07-.07l.1-.13.05-.09a2.81 2.81 0 103.79-3.27.91.91 0 00.41-.34.92.92 0 00.12-.68 4.28 4.28 0 00-.79-1.55 4.08 4.08 0 00-3.32-1.53.9.9 0 000 1.79 2.86 2.86 0 01.72.08l.12.06-2-.12a1.65 1.65 0 00-1.49.73l-.54.78-2.4-.71a1 1 0 00.23-.62 1 1 0 00-1-1h-1.8A1 1 0 009.52 14a1 1 0 00.24 1.65A2.79 2.79 0 008.5 18zm9.44.44l.3.07v.13zM10.25 13h1.8a.24.24 0 010 .48h-1.8a.24.24 0 010-.48zm1.07 2.94a2.05 2.05 0 01.8.17.4.4 0 00.42-.67l-.47-.4a.4.4 0 00-.26-.1h-1.56a.24.24 0 110-.47h1.87l3.18.94a.41.41 0 00.45-.15l.7-1a.85.85 0 01.78-.38l2 .12a.91.91 0 01.46.16.4.4 0 00.42 0 .41.41 0 00.21-.36 1.7 1.7 0 00-.28-1 1.39 1.39 0 00-.6-.45 3.61 3.61 0 00-1-.13.1.1 0 01-.09-.09.09.09 0 01.09-.1 3.3 3.3 0 012.69 1.23 3.51 3.51 0 01.64 1.22l-.07.12-1.39.27a.38.38 0 00-.3.26.88.88 0 01-.16.28.4.4 0 00.44.63 2 2 0 01.68-.12 2 2 0 11-2 2 2 2 0 01.71-1.54.4.4 0 00.1-.47.41.41 0 00-.36-.23h-.07a.74.74 0 01-.21 0h-.44a.4.4 0 00-.34.15 3.83 3.83 0 00-.8 2.32 1 1 0 01-.05.11l-.08.06H15.88l-.09-.05L14 16.68a.41.41 0 00-.48 0l-.17.11a.39.39 0 00-.15.47 2.18 2.18 0 01.13.72 2 2 0 11-2-2z" fill="#151d4c"/><path d="M26 5.6H6a.4.4 0 00-.4.4v20a.4.4 0 00.4.4h20a.4.4 0 00.4-.4V6a.4.4 0 00-.4-.4zm-.4 20H6.4V6.4h19.2z" fill="#151d4c"/></svg>