<svg data-name="Calque 1" xmlns="http://www.w3.org/2000/svg" viewBox="0 0 32 32"><path d="M16.12 21.35A1.85 1.85 0 1018 23.2a1.85 1.85 0 00-1.88-1.85zm0 2.9a1.05 1.05 0 111.05-1.05 1 1 0 01-1.05 1.05zM26.3 13a14.4 14.4 0 00-20.37 0 .4.4 0 000 .56.4.4 0 00.57 0 13.62 13.62 0 0119.24 0 .39.39 0 00.28.12.38.38 0 00.28-.12.39.39 0 000-.56z" fill="#151d4c"/><path d="M16.12 13.59a9.58 9.58 0 00-6.8 2.81.4.4 0 00.57.57 8.81 8.81 0 0112.46 0 .4.4 0 00.29.12.39.39 0 00.28-.12.42.42 0 000-.57 9.58 9.58 0 00-6.8-2.81zM16.12 17.86a5.3 5.3 0 00-3.78 1.56.4.4 0 000 .57.4.4 0 00.56 0 4.55 4.55 0 016.43 0 .4.4 0 00.29.12.41.41 0 00.28-.69 5.3 5.3 0 00-3.78-1.56z" fill="#151d4c"/></svg>