<svg data-name="Calque 1" xmlns="http://www.w3.org/2000/svg" viewBox="0 0 32 32"><path d="M26 5.6H6a.4.4 0 00-.4.4v20a.4.4 0 00.4.4h20a.4.4 0 00.4-.4V6a.4.4 0 00-.4-.4zm-.4 20H6.4V6.4h19.2z" fill="#151d4c"/><path d="M8.81 19.49h1.32a1.74 1.74 0 003.38 0h5.56a1.74 1.74 0 003.38 0h1a.4.4 0 00.34-.2 3.77 3.77 0 00.46-1.77c0-1-1.22-3-2-3h-2.31c-.35-.76-1.66-2.8-5.44-2.8a4.73 4.73 0 00-4.65 3 6.17 6.17 0 00-1.44 4.41.4.4 0 00.4.36zm3 .54a.94.94 0 11.94-.94.94.94 0 01-.93.91zm8.94 0a.94.94 0 11.94-.94.94.94 0 01-.93.91zm2.71-2.51a3.1 3.1 0 01-.25 1.17h-.77a1.74 1.74 0 00-3.38 0h-3.2V15.3h6.37a4 4 0 011.24 2.22zm-4.44-3h-3.15v-1.9A4.46 4.46 0 0119 14.51zm-4.53-2h.57v2h-4.25a3.94 3.94 0 013.69-2.01zm-4.14 2.8h4.71v3.39h-1.55a1.74 1.74 0 00-3.38 0h-.91a5.35 5.35 0 011.14-3.4z" fill="#151d4c"/></svg>